<svg width="107" height="150" viewBox="0 0 107 150" fill="none" xmlns="http://www.w3.org/2000/svg">
<path fill-rule="evenodd" clip-rule="evenodd" d="M96.875 131.25C101.344 131.25 106.25 134.788 106.25 140.625C106.25 145.094 102.713 150 96.875 150H9.375C3.56875 150 0 145.15 0 140.625C0 136.125 3.58125 131.25 9.375 131.25H96.875ZM96.3188 125H9.475C-1.45625 87.6375 53.35 73.75 38.675 59.8063C30.1375 51.6938 20.9375 69.4562 8.85625 65.5187C0.649999 62.85 -3.55 47.5125 4.3875 43.75C19.1188 36.7625 17.3625 22.7188 23.8438 17.7938C31.1375 12.2563 38.5125 19.1125 43.2688 15.4C46.2688 13.05 43.175 6.55 38.4375 0C73.0688 3.53125 91.3688 24.0875 97.5563 43.75H86.5813C85.0813 43.75 83.4563 44.9313 83.4563 46.875C83.4563 48.3688 84.6375 50 86.5813 50H99.125C99.7125 53.1 100 56.1187 100 59L99.925 62.5H88.4188C86.4813 62.5 85.2938 64.125 85.2938 65.625C85.2938 67.1188 86.4813 68.75 88.4188 68.75H99.4188C98.8438 73.4187 97.9 77.5375 96.8 81.25H84.375C82.4313 81.25 81.25 82.875 81.25 84.375C81.25 85.8688 82.4313 87.5 84.375 87.5H94.6937C89.2 102.275 83.1188 110.431 96.3188 125ZM32.725 25C35.3625 25 37.5 26.9188 37.5 29.275C37.5 31.6375 35.3625 33.55 32.725 33.55C30.0938 33.55 27.9563 31.6375 27.9563 29.275C27.9563 26.9188 30.0938 25 32.725 25Z" fill="#fff"/>
</svg>
